<svg width="89" height="35" viewBox="0 0 89 35" fill="none" xmlns="http://www.w3.org/2000/svg">
<path d="M7.532 29.336C9.30533 29.336 10.7333 28.8973 11.816 28.02C12.8987 27.1427 13.44 25.9947 13.44 24.576C13.44 23.4747 13.104 22.5507 12.432 21.804C11.76 21.0387 10.7893 20.4693 9.52 20.096L7.084 19.368C5.98267 19.0507 5.432 18.5933 5.432 17.996C5.432 17.604 5.58133 17.296 5.88 17.072C6.19733 16.848 6.62667 16.736 7.168 16.736C7.91467 16.736 8.57733 16.932 9.156 17.324C9.75333 17.6973 10.164 18.2013 10.388 18.836L13.496 17.38C13.0293 16.1107 12.2267 15.1307 11.088 14.44C9.968 13.7307 8.66133 13.376 7.168 13.376C6.02933 13.376 5.02133 13.5813 4.144 13.992C3.26667 14.384 2.58533 14.9347 2.1 15.644C1.61467 16.3533 1.372 17.184 1.372 18.136C1.372 19.2187 1.708 20.1613 2.38 20.964C3.052 21.748 4.01333 22.3173 5.264 22.672L7.868 23.4C8.876 23.68 9.38 24.128 9.38 24.744C9.38 25.6587 8.764 26.116 7.532 26.116C6.71067 26.116 5.964 25.8827 5.292 25.416C4.62 24.9493 4.088 24.3053 3.696 23.484L0.616 24.94C1.064 26.284 1.904 27.3573 3.136 28.16C4.38667 28.944 5.852 29.336 7.532 29.336ZM15.9502 29H20.1502V24.324L21.8302 22.476L25.7222 29H30.4822L24.9662 19.872L30.5102 13.712H25.3302L20.1502 19.228V7.804H15.9502V29ZM32.3564 12.34H36.5564V8.14H32.3564V12.34ZM32.3564 29H36.5564V13.712H32.3564V29ZM39.6298 29H43.8298V7.804H39.6298V29ZM46.9033 29H51.1033V7.804H46.9033V29ZM61.5407 29.336C63.1087 29.336 64.4807 29 65.6567 28.328C66.8327 27.6373 67.6541 26.732 68.1207 25.612L64.7607 24.016C64.4621 24.5387 64.0421 24.9493 63.5007 25.248C62.9781 25.5467 62.3434 25.696 61.5967 25.696C60.5701 25.696 59.7301 25.4067 59.0767 24.828C58.4234 24.2493 58.0407 23.484 57.9287 22.532H68.6247C68.6994 22.3267 68.7461 22.084 68.7647 21.804C68.8021 21.5053 68.8207 21.2067 68.8207 20.908C68.8207 19.4893 68.5221 18.22 67.9247 17.1C67.3461 15.9613 66.4967 15.056 65.3767 14.384C64.2567 13.712 62.8847 13.376 61.2607 13.376C59.8047 13.376 58.4981 13.7213 57.3407 14.412C56.1834 15.1027 55.2594 16.0453 54.5687 17.24C53.8967 18.4347 53.5607 19.7973 53.5607 21.328C53.5607 22.8027 53.8874 24.1467 54.5407 25.36C55.1941 26.5733 56.1181 27.544 57.3127 28.272C58.5074 28.9813 59.9167 29.336 61.5407 29.336ZM61.2607 16.736C62.1194 16.736 62.8287 16.988 63.3887 17.492C63.9487 17.996 64.2754 18.6493 64.3687 19.452H58.0127C58.2181 18.5747 58.6007 17.9027 59.1607 17.436C59.7394 16.9693 60.4394 16.736 61.2607 16.736ZM78.4899 29.336C79.4232 29.336 80.2912 29.1867 81.0939 28.888C81.9152 28.5707 82.5966 28.1227 83.1379 27.544V29H87.0579V7.804H82.8579V15C81.7752 13.9173 80.3099 13.376 78.4619 13.376C77.0059 13.376 75.6899 13.7307 74.5139 14.44C73.3379 15.1493 72.4046 16.1107 71.7139 17.324C71.0232 18.5187 70.6779 19.8627 70.6779 21.356C70.6779 22.8307 71.0139 24.1747 71.6859 25.388C72.3766 26.6013 73.3099 27.5627 74.4859 28.272C75.6619 28.9813 76.9966 29.336 78.4899 29.336ZM78.9939 25.556C77.8366 25.556 76.8846 25.164 76.1379 24.38C75.3912 23.596 75.0179 22.588 75.0179 21.356C75.0179 20.1427 75.3912 19.144 76.1379 18.36C76.8846 17.5573 77.8366 17.156 78.9939 17.156C80.1326 17.156 81.0566 17.548 81.7659 18.332C82.4939 19.116 82.8579 20.124 82.8579 21.356C82.8579 22.6067 82.4939 23.624 81.7659 24.408C81.0566 25.1733 80.1326 25.556 78.9939 25.556Z" fill="white"/>
</svg>
